<mxfile host="app.diagrams.net" modified="2023-07-30T21:04:01.843Z" agent="Mozilla/5.0 (Windows NT 10.0; Win64; x64) AppleWebKit/537.36 (KHTML, like Gecko) Chrome/115.0.0.0 Safari/537.36" etag="heoIbwhCmNN8icQ0u6m1" version="21.6.6" type="github">
  <diagram id="C5RBs43oDa-KdzZeNtuy" name="Page-1">
    <mxGraphModel dx="1093" dy="588" grid="1" gridSize="10" guides="1" tooltips="1" connect="1" arrows="1" fold="1" page="1" pageScale="1" pageWidth="827" pageHeight="1169" math="0" shadow="0">
      <root>
        <mxCell id="WIyWlLk6GJQsqaUBKTNV-0" />
        <mxCell id="WIyWlLk6GJQsqaUBKTNV-1" parent="WIyWlLk6GJQsqaUBKTNV-0" />
        <mxCell id="WumvJ4lYRt79ldeFu9Rn-1" value="Inicio" style="ellipse;whiteSpace=wrap;html=1;labelBackgroundColor=none;fillColor=#182E3E;strokeColor=#FFFFFF;fontColor=#FFFFFF;rounded=1;" vertex="1" parent="WIyWlLk6GJQsqaUBKTNV-1">
          <mxGeometry x="90" width="70" height="40" as="geometry" />
        </mxCell>
        <mxCell id="WumvJ4lYRt79ldeFu9Rn-15" value="" style="edgeStyle=orthogonalEdgeStyle;rounded=1;orthogonalLoop=1;jettySize=auto;html=1;labelBackgroundColor=none;strokeColor=#23445D;fontColor=default;" edge="1" parent="WIyWlLk6GJQsqaUBKTNV-1" source="WumvJ4lYRt79ldeFu9Rn-2" target="WumvJ4lYRt79ldeFu9Rn-13">
          <mxGeometry relative="1" as="geometry" />
        </mxCell>
        <mxCell id="WumvJ4lYRt79ldeFu9Rn-2" value="Incluir librerías necesarias:&lt;br&gt;- stdio.h&lt;br&gt;-&amp;nbsp;stdarg.h&lt;br&gt;-&amp;nbsp;main.h&lt;br&gt;-&amp;nbsp;limits.h&lt;br&gt;-&amp;nbsp;stdlib.h" style="rounded=1;whiteSpace=wrap;html=1;labelBackgroundColor=none;fillColor=#182E3E;strokeColor=#FFFFFF;fontColor=#FFFFFF;" vertex="1" parent="WIyWlLk6GJQsqaUBKTNV-1">
          <mxGeometry x="22.5" y="100" width="205" height="140" as="geometry" />
        </mxCell>
        <mxCell id="WumvJ4lYRt79ldeFu9Rn-3" value="" style="endArrow=classic;html=1;rounded=1;exitX=0.5;exitY=1;exitDx=0;exitDy=0;entryX=0.5;entryY=0;entryDx=0;entryDy=0;labelBackgroundColor=none;strokeColor=#23445D;fontColor=default;" edge="1" parent="WIyWlLk6GJQsqaUBKTNV-1" source="WumvJ4lYRt79ldeFu9Rn-1" target="WumvJ4lYRt79ldeFu9Rn-2">
          <mxGeometry width="50" height="50" relative="1" as="geometry">
            <mxPoint x="250" y="100" as="sourcePoint" />
            <mxPoint x="220" y="140" as="targetPoint" />
            <Array as="points" />
          </mxGeometry>
        </mxCell>
        <mxCell id="WumvJ4lYRt79ldeFu9Rn-17" value="" style="edgeStyle=orthogonalEdgeStyle;rounded=1;orthogonalLoop=1;jettySize=auto;html=1;labelBackgroundColor=none;strokeColor=#23445D;fontColor=default;" edge="1" parent="WIyWlLk6GJQsqaUBKTNV-1" source="WumvJ4lYRt79ldeFu9Rn-13" target="WumvJ4lYRt79ldeFu9Rn-16">
          <mxGeometry relative="1" as="geometry" />
        </mxCell>
        <mxCell id="WumvJ4lYRt79ldeFu9Rn-13" value="Definir la función print_char" style="whiteSpace=wrap;html=1;labelBackgroundColor=none;fillColor=#182E3E;strokeColor=#FFFFFF;fontColor=#FFFFFF;rounded=1;" vertex="1" parent="WIyWlLk6GJQsqaUBKTNV-1">
          <mxGeometry x="40.620000000000005" y="300" width="168.75" height="60" as="geometry" />
        </mxCell>
        <mxCell id="WumvJ4lYRt79ldeFu9Rn-20" value="" style="edgeStyle=orthogonalEdgeStyle;rounded=1;orthogonalLoop=1;jettySize=auto;html=1;labelBackgroundColor=none;strokeColor=#23445D;fontColor=default;" edge="1" parent="WIyWlLk6GJQsqaUBKTNV-1" source="WumvJ4lYRt79ldeFu9Rn-16" target="WumvJ4lYRt79ldeFu9Rn-19">
          <mxGeometry relative="1" as="geometry" />
        </mxCell>
        <mxCell id="WumvJ4lYRt79ldeFu9Rn-16" value="Iniciar función print_char(c)" style="rhombus;whiteSpace=wrap;html=1;labelBackgroundColor=none;fillColor=#182E3E;strokeColor=#FFFFFF;fontColor=#FFFFFF;rounded=1;" vertex="1" parent="WIyWlLk6GJQsqaUBKTNV-1">
          <mxGeometry x="271.25" y="250" width="112.5" height="100" as="geometry" />
        </mxCell>
        <mxCell id="WumvJ4lYRt79ldeFu9Rn-22" value="" style="edgeStyle=orthogonalEdgeStyle;rounded=1;orthogonalLoop=1;jettySize=auto;html=1;exitX=0.5;exitY=1;exitDx=0;exitDy=0;labelBackgroundColor=none;strokeColor=#23445D;fontColor=default;" edge="1" parent="WIyWlLk6GJQsqaUBKTNV-1" source="WumvJ4lYRt79ldeFu9Rn-13" target="WumvJ4lYRt79ldeFu9Rn-21">
          <mxGeometry relative="1" as="geometry" />
        </mxCell>
        <mxCell id="WumvJ4lYRt79ldeFu9Rn-19" value="1. Imprimir el carácter c en la salida estándar (putchar(c))&lt;br&gt;2. Retornar 1" style="whiteSpace=wrap;html=1;labelBackgroundColor=none;fillColor=#182E3E;strokeColor=#FFFFFF;fontColor=#FFFFFF;rounded=1;" vertex="1" parent="WIyWlLk6GJQsqaUBKTNV-1">
          <mxGeometry x="440" y="270" width="322.5" height="60" as="geometry" />
        </mxCell>
        <mxCell id="WumvJ4lYRt79ldeFu9Rn-24" value="" style="edgeStyle=orthogonalEdgeStyle;rounded=1;orthogonalLoop=1;jettySize=auto;html=1;labelBackgroundColor=none;strokeColor=#23445D;fontColor=default;" edge="1" parent="WIyWlLk6GJQsqaUBKTNV-1" source="WumvJ4lYRt79ldeFu9Rn-21" target="WumvJ4lYRt79ldeFu9Rn-23">
          <mxGeometry relative="1" as="geometry" />
        </mxCell>
        <mxCell id="WumvJ4lYRt79ldeFu9Rn-21" value="Definir la función print_string" style="whiteSpace=wrap;html=1;labelBackgroundColor=none;fillColor=#182E3E;strokeColor=#FFFFFF;fontColor=#FFFFFF;rounded=1;" vertex="1" parent="WIyWlLk6GJQsqaUBKTNV-1">
          <mxGeometry x="36.88" y="510" width="172.49" height="60" as="geometry" />
        </mxCell>
        <mxCell id="WumvJ4lYRt79ldeFu9Rn-26" value="" style="edgeStyle=orthogonalEdgeStyle;rounded=1;orthogonalLoop=1;jettySize=auto;html=1;entryX=0.5;entryY=0;entryDx=0;entryDy=0;exitX=0.5;exitY=1;exitDx=0;exitDy=0;labelBackgroundColor=none;strokeColor=#23445D;fontColor=default;" edge="1" parent="WIyWlLk6GJQsqaUBKTNV-1" source="WumvJ4lYRt79ldeFu9Rn-21" target="WumvJ4lYRt79ldeFu9Rn-52">
          <mxGeometry relative="1" as="geometry">
            <mxPoint x="123.12499999999977" y="910" as="targetPoint" />
          </mxGeometry>
        </mxCell>
        <mxCell id="WumvJ4lYRt79ldeFu9Rn-28" value="" style="edgeStyle=orthogonalEdgeStyle;rounded=1;orthogonalLoop=1;jettySize=auto;html=1;labelBackgroundColor=none;strokeColor=#23445D;fontColor=default;" edge="1" parent="WIyWlLk6GJQsqaUBKTNV-1" source="WumvJ4lYRt79ldeFu9Rn-23" target="WumvJ4lYRt79ldeFu9Rn-27">
          <mxGeometry relative="1" as="geometry" />
        </mxCell>
        <mxCell id="WumvJ4lYRt79ldeFu9Rn-23" value="Iniciar función print_string(str)" style="rhombus;whiteSpace=wrap;html=1;labelBackgroundColor=none;fillColor=#182E3E;strokeColor=#FFFFFF;fontColor=#FFFFFF;rounded=1;" vertex="1" parent="WIyWlLk6GJQsqaUBKTNV-1">
          <mxGeometry x="281" y="485" width="132.51" height="110" as="geometry" />
        </mxCell>
        <mxCell id="WumvJ4lYRt79ldeFu9Rn-30" value="" style="edgeStyle=orthogonalEdgeStyle;rounded=1;orthogonalLoop=1;jettySize=auto;html=1;labelBackgroundColor=none;strokeColor=#23445D;fontColor=default;" edge="1" parent="WIyWlLk6GJQsqaUBKTNV-1" source="WumvJ4lYRt79ldeFu9Rn-27" target="WumvJ4lYRt79ldeFu9Rn-29">
          <mxGeometry relative="1" as="geometry">
            <Array as="points">
              <mxPoint x="506" y="800" />
              <mxPoint x="707" y="800" />
            </Array>
          </mxGeometry>
        </mxCell>
        <mxCell id="WumvJ4lYRt79ldeFu9Rn-27" value="Si str es NULL" style="rhombus;whiteSpace=wrap;html=1;labelBackgroundColor=none;fillColor=#182E3E;strokeColor=#FFFFFF;fontColor=#FFFFFF;rounded=1;" vertex="1" parent="WIyWlLk6GJQsqaUBKTNV-1">
          <mxGeometry x="370" y="650" width="132.51" height="110" as="geometry" />
        </mxCell>
        <mxCell id="WumvJ4lYRt79ldeFu9Rn-29" value="- Inicializar nullStr a &quot;(null)&quot;&lt;br&gt;" style="whiteSpace=wrap;html=1;labelBackgroundColor=none;fillColor=#182E3E;strokeColor=#FFFFFF;fontColor=#FFFFFF;rounded=1;" vertex="1" parent="WIyWlLk6GJQsqaUBKTNV-1">
          <mxGeometry x="606.99" y="710" width="200.01" height="60" as="geometry" />
        </mxCell>
        <mxCell id="WumvJ4lYRt79ldeFu9Rn-32" value="si" style="text;html=1;strokeColor=none;fillColor=none;align=center;verticalAlign=middle;whiteSpace=wrap;rounded=1;labelBackgroundColor=none;fontColor=#FFFFFF;" vertex="1" parent="WIyWlLk6GJQsqaUBKTNV-1">
          <mxGeometry x="510" y="770" width="70" height="20" as="geometry" />
        </mxCell>
        <mxCell id="WumvJ4lYRt79ldeFu9Rn-34" value="Mientras el carácter apuntado por nullStr no sea nulo" style="rhombus;whiteSpace=wrap;html=1;labelBackgroundColor=none;fillColor=#182E3E;strokeColor=#FFFFFF;fontColor=#FFFFFF;rounded=1;" vertex="1" parent="WIyWlLk6GJQsqaUBKTNV-1">
          <mxGeometry x="547" y="450" width="323" height="100" as="geometry" />
        </mxCell>
        <mxCell id="WumvJ4lYRt79ldeFu9Rn-35" value="-&amp;nbsp;Imprimir el carácter apuntado por nullStr en la salida estándar&lt;br&gt;-&amp;nbsp;Incrementar count&lt;br&gt;-&amp;nbsp;Avanzar nullStr al siguiente carácter" style="rounded=1;whiteSpace=wrap;html=1;labelBackgroundColor=none;fillColor=#182E3E;strokeColor=#FFFFFF;fontColor=#FFFFFF;" vertex="1" parent="WIyWlLk6GJQsqaUBKTNV-1">
          <mxGeometry x="566.99" y="570" width="280" height="65" as="geometry" />
        </mxCell>
        <mxCell id="WumvJ4lYRt79ldeFu9Rn-36" value="" style="endArrow=none;html=1;rounded=1;entryX=0;entryY=0.5;entryDx=0;entryDy=0;labelBackgroundColor=none;strokeColor=#23445D;fontColor=default;" edge="1" parent="WIyWlLk6GJQsqaUBKTNV-1" target="WumvJ4lYRt79ldeFu9Rn-34">
          <mxGeometry width="50" height="50" relative="1" as="geometry">
            <mxPoint x="640" y="680" as="sourcePoint" />
            <mxPoint x="570" y="580" as="targetPoint" />
            <Array as="points">
              <mxPoint x="709" y="680" />
              <mxPoint x="547" y="680" />
              <mxPoint x="547" y="580" />
            </Array>
          </mxGeometry>
        </mxCell>
        <mxCell id="WumvJ4lYRt79ldeFu9Rn-38" value="" style="endArrow=none;html=1;rounded=1;entryX=0.5;entryY=1;entryDx=0;entryDy=0;exitX=0.5;exitY=0;exitDx=0;exitDy=0;labelBackgroundColor=none;strokeColor=#23445D;fontColor=default;" edge="1" parent="WIyWlLk6GJQsqaUBKTNV-1" source="WumvJ4lYRt79ldeFu9Rn-35" target="WumvJ4lYRt79ldeFu9Rn-34">
          <mxGeometry width="50" height="50" relative="1" as="geometry">
            <mxPoint x="600" y="670" as="sourcePoint" />
            <mxPoint x="650" y="620" as="targetPoint" />
          </mxGeometry>
        </mxCell>
        <mxCell id="WumvJ4lYRt79ldeFu9Rn-39" value="" style="endArrow=none;html=1;rounded=1;entryX=0.5;entryY=1;entryDx=0;entryDy=0;exitX=0.5;exitY=0;exitDx=0;exitDy=0;labelBackgroundColor=none;strokeColor=#23445D;fontColor=default;" edge="1" parent="WIyWlLk6GJQsqaUBKTNV-1" source="WumvJ4lYRt79ldeFu9Rn-29" target="WumvJ4lYRt79ldeFu9Rn-35">
          <mxGeometry width="50" height="50" relative="1" as="geometry">
            <mxPoint x="420" y="740" as="sourcePoint" />
            <mxPoint x="470" y="690" as="targetPoint" />
          </mxGeometry>
        </mxCell>
        <mxCell id="WumvJ4lYRt79ldeFu9Rn-40" value="" style="endArrow=none;html=1;rounded=1;exitX=1;exitY=0.5;exitDx=0;exitDy=0;labelBackgroundColor=none;strokeColor=#23445D;fontColor=default;" edge="1" parent="WIyWlLk6GJQsqaUBKTNV-1" source="WumvJ4lYRt79ldeFu9Rn-34">
          <mxGeometry width="50" height="50" relative="1" as="geometry">
            <mxPoint x="860" y="500" as="sourcePoint" />
            <mxPoint x="710" y="680" as="targetPoint" />
            <Array as="points">
              <mxPoint x="870" y="680" />
            </Array>
          </mxGeometry>
        </mxCell>
        <mxCell id="WumvJ4lYRt79ldeFu9Rn-42" value="" style="endArrow=classic;html=1;rounded=1;exitX=0.5;exitY=1;exitDx=0;exitDy=0;entryX=0;entryY=0.5;entryDx=0;entryDy=0;labelBackgroundColor=none;strokeColor=#23445D;fontColor=default;" edge="1" parent="WIyWlLk6GJQsqaUBKTNV-1" source="WumvJ4lYRt79ldeFu9Rn-27" target="WumvJ4lYRt79ldeFu9Rn-43">
          <mxGeometry width="50" height="50" relative="1" as="geometry">
            <mxPoint x="506" y="960" as="sourcePoint" />
            <mxPoint x="610" y="970" as="targetPoint" />
            <Array as="points">
              <mxPoint x="436" y="895" />
            </Array>
          </mxGeometry>
        </mxCell>
        <mxCell id="WumvJ4lYRt79ldeFu9Rn-43" value="-&amp;nbsp;Imprimir el carácter apuntado por str en la salida estándar&lt;br&gt;-&amp;nbsp;Incrementar count&lt;br&gt;-&amp;nbsp;Avanzar str al siguiente carácter" style="rounded=1;whiteSpace=wrap;html=1;labelBackgroundColor=none;fillColor=#182E3E;strokeColor=#FFFFFF;fontColor=#FFFFFF;" vertex="1" parent="WIyWlLk6GJQsqaUBKTNV-1">
          <mxGeometry x="540" y="850" width="260" height="90" as="geometry" />
        </mxCell>
        <mxCell id="WumvJ4lYRt79ldeFu9Rn-44" value="no" style="text;html=1;strokeColor=none;fillColor=none;align=center;verticalAlign=middle;whiteSpace=wrap;rounded=1;labelBackgroundColor=none;fontColor=#FFFFFF;" vertex="1" parent="WIyWlLk6GJQsqaUBKTNV-1">
          <mxGeometry x="450" y="870" width="60" height="20" as="geometry" />
        </mxCell>
        <mxCell id="WumvJ4lYRt79ldeFu9Rn-46" value="" style="endArrow=none;html=1;rounded=1;exitX=1;exitY=0.5;exitDx=0;exitDy=0;entryX=1;entryY=0.5;entryDx=0;entryDy=0;labelBackgroundColor=none;strokeColor=#23445D;fontColor=default;" edge="1" parent="WIyWlLk6GJQsqaUBKTNV-1" source="WumvJ4lYRt79ldeFu9Rn-43" target="WumvJ4lYRt79ldeFu9Rn-29">
          <mxGeometry width="50" height="50" relative="1" as="geometry">
            <mxPoint x="600" y="880" as="sourcePoint" />
            <mxPoint x="920" y="740" as="targetPoint" />
            <Array as="points">
              <mxPoint x="920" y="895" />
              <mxPoint x="920" y="740" />
            </Array>
          </mxGeometry>
        </mxCell>
        <mxCell id="WumvJ4lYRt79ldeFu9Rn-47" value="" style="endArrow=none;html=1;rounded=1;labelBackgroundColor=none;strokeColor=#23445D;fontColor=default;" edge="1" parent="WIyWlLk6GJQsqaUBKTNV-1">
          <mxGeometry width="50" height="50" relative="1" as="geometry">
            <mxPoint x="1000" y="840" as="sourcePoint" />
            <mxPoint x="920" y="840" as="targetPoint" />
          </mxGeometry>
        </mxCell>
        <mxCell id="WumvJ4lYRt79ldeFu9Rn-48" value="retorna count" style="shape=parallelogram;perimeter=parallelogramPerimeter;whiteSpace=wrap;html=1;fixedSize=1;labelBackgroundColor=none;fillColor=#182E3E;strokeColor=#FFFFFF;fontColor=#FFFFFF;rounded=1;" vertex="1" parent="WIyWlLk6GJQsqaUBKTNV-1">
          <mxGeometry x="990" y="815" width="120" height="60" as="geometry" />
        </mxCell>
        <mxCell id="WumvJ4lYRt79ldeFu9Rn-52" value="Definir la función print_int" style="whiteSpace=wrap;html=1;labelBackgroundColor=none;fillColor=#182E3E;strokeColor=#FFFFFF;fontColor=#FFFFFF;rounded=1;" vertex="1" parent="WIyWlLk6GJQsqaUBKTNV-1">
          <mxGeometry x="36.88" y="1250" width="172.49" height="60" as="geometry" />
        </mxCell>
        <mxCell id="WumvJ4lYRt79ldeFu9Rn-56" value="" style="edgeStyle=orthogonalEdgeStyle;rounded=1;orthogonalLoop=1;jettySize=auto;html=1;labelBackgroundColor=none;strokeColor=#23445D;fontColor=default;" edge="1" parent="WIyWlLk6GJQsqaUBKTNV-1" source="WumvJ4lYRt79ldeFu9Rn-53" target="WumvJ4lYRt79ldeFu9Rn-55">
          <mxGeometry relative="1" as="geometry" />
        </mxCell>
        <mxCell id="WumvJ4lYRt79ldeFu9Rn-53" value="Iniciar función print_int(num)" style="rhombus;whiteSpace=wrap;html=1;labelBackgroundColor=none;fillColor=#182E3E;strokeColor=#FFFFFF;fontColor=#FFFFFF;rounded=1;" vertex="1" parent="WIyWlLk6GJQsqaUBKTNV-1">
          <mxGeometry x="290" y="1220" width="150" height="120" as="geometry" />
        </mxCell>
        <mxCell id="WumvJ4lYRt79ldeFu9Rn-54" value="" style="endArrow=classic;html=1;rounded=1;entryX=0;entryY=0.5;entryDx=0;entryDy=0;exitX=1;exitY=0.5;exitDx=0;exitDy=0;labelBackgroundColor=none;strokeColor=#23445D;fontColor=default;" edge="1" parent="WIyWlLk6GJQsqaUBKTNV-1" source="WumvJ4lYRt79ldeFu9Rn-52" target="WumvJ4lYRt79ldeFu9Rn-53">
          <mxGeometry width="50" height="50" relative="1" as="geometry">
            <mxPoint x="231" y="1300" as="sourcePoint" />
            <mxPoint x="281" y="1250" as="targetPoint" />
          </mxGeometry>
        </mxCell>
        <mxCell id="WumvJ4lYRt79ldeFu9Rn-58" value="" style="edgeStyle=orthogonalEdgeStyle;rounded=1;orthogonalLoop=1;jettySize=auto;html=1;strokeColor=#23445D;" edge="1" parent="WIyWlLk6GJQsqaUBKTNV-1" source="WumvJ4lYRt79ldeFu9Rn-55" target="WumvJ4lYRt79ldeFu9Rn-57">
          <mxGeometry relative="1" as="geometry" />
        </mxCell>
        <mxCell id="WumvJ4lYRt79ldeFu9Rn-55" value="- Declarar el arreglo de caracteres digits con capacidad para 12 elementos&lt;br&gt;- Inicializar digitsNumbers a 0 (contador de dígitos)&lt;br&gt;- Inicializar count a 0 (contador total de caracteres impresos)&lt;br&gt;- Inicializar isNegative a 0 (indica si el número es negativo)&lt;br&gt;- Si num es igual a 0" style="whiteSpace=wrap;html=1;labelBackgroundColor=none;fillColor=#182E3E;strokeColor=#FFFFFF;fontColor=#FFFFFF;rounded=1;" vertex="1" parent="WIyWlLk6GJQsqaUBKTNV-1">
          <mxGeometry x="520" y="1220" width="435" height="120" as="geometry" />
        </mxCell>
        <mxCell id="WumvJ4lYRt79ldeFu9Rn-57" value="Si num es igual a 0" style="rhombus;whiteSpace=wrap;html=1;fillColor=#182E3E;strokeColor=#FFFFFF;fontColor=#FFFFFF;labelBackgroundColor=none;rounded=1;" vertex="1" parent="WIyWlLk6GJQsqaUBKTNV-1">
          <mxGeometry x="1010" y="1235" width="170" height="90" as="geometry" />
        </mxCell>
      </root>
    </mxGraphModel>
  </diagram>
</mxfile>
